<svg xmlns="http://www.w3.org/2000/svg" viewBox="0 0 960 620" role="img" aria-labelledby="title desc">
  <title id="title">Chocolate chip cookie tray illustration</title>
  <desc id="desc">Stylized tray of cookies with cooling rack lines.</desc>
  <defs>
    <linearGradient id="bg" x1="0" y1="0" x2="1" y2="1">
      <stop offset="0" stop-color="#ffccd5"/>
      <stop offset="1" stop-color="#ff8fa3"/>
    </linearGradient>
  </defs>
  <rect width="960" height="620" fill="url(#bg)"/>
  <g opacity="0.28" stroke="#c9184a" stroke-width="3">
    <path d="M90 130h780M90 180h780M90 230h780M90 280h780M90 330h780M90 380h780M90 430h780M90 480h780"/>
  </g>
  <g fill="#ff758f" stroke="#c9184a" stroke-width="8">
    <circle cx="250" cy="245" r="95"/>
    <circle cx="470" cy="220" r="95"/>
    <circle cx="700" cy="255" r="95"/>
    <circle cx="335" cy="390" r="95"/>
    <circle cx="575" cy="400" r="95"/>
  </g>
  <g fill="#c9184a">
    <circle cx="205" cy="212" r="11"/><circle cx="272" cy="285" r="10"/><circle cx="246" cy="236" r="8"/>
    <circle cx="422" cy="177" r="11"/><circle cx="514" cy="213" r="10"/><circle cx="468" cy="253" r="8"/>
    <circle cx="668" cy="224" r="11"/><circle cx="748" cy="272" r="10"/><circle cx="711" cy="202" r="8"/>
    <circle cx="311" cy="351" r="11"/><circle cx="372" cy="423" r="10"/><circle cx="344" cy="393" r="8"/>
    <circle cx="530" cy="354" r="11"/><circle cx="619" cy="422" r="10"/><circle cx="570" cy="412" r="8"/>
  </g>
</svg>
